STARTFONT 2.1
COMMENT
COMMENT  This font is copyrighted by Roar Lauritzsen, who reserves all rights
COMMENT  under national and international copyright laws.
COMMENT
COMMENT  Produced with bdfedit, a tcl/tk font editing program
COMMENT    written by Thomas A. Fine
COMMENT    fine@head-cfa.harvard.edu
COMMENT    http://hea-www.harvard.edu/~fine/
FONT -misc-nethack-medium-r-normal--24-160-100-100-c-160--custom
SIZE 24 72 72
FONTBOUNDINGBOX 16 16 0 -3
STARTPROPERTIES 11
FOUNDRY "Misc"
FAMILY_NAME "Nethack"
WEIGHT_NAME "Medium"
SLANT "R"
SETWIDTH_NAME "Normal"
SPACING "c"
CHARSET_REGISTRY "ISO-8859"
CHARSET_ENCODING "1"
COPYRIGHT "Designer of this font, Roar Lauritzsen, retains full rights under the law"
FONT_ASCENT  13
FONT_DESCENT 3
ENDPROPERTIES
CHARS 191
STARTCHAR C040
ENCODING 32
SWIDTH 666 0
DWIDTH 16 0
BBX 0 0 0 0
BITMAP
ENDCHAR
STARTCHAR C041
ENCODING 33
SWIDTH 666 0
DWIDTH 16 0
BBX 2 12 7 0
BITMAP
c0
c0
c0
c0
c0
c0
c0
80
80
00
c0
c0
ENDCHAR
STARTCHAR C042
ENCODING 34
SWIDTH 666 0
DWIDTH 16 0
BBX 7 4 4 8
BITMAP
66
66
cc
88
ENDCHAR
STARTCHAR C043
ENCODING 35
SWIDTH 666 0
DWIDTH 16 0
BBX 12 12 2 -1
BITMAP
1980
1980
1980
fff0
fff0
1980
1980
fff0
fff0
1980
1980
1980
ENDCHAR
STARTCHAR C044
ENCODING 36
SWIDTH 666 0
DWIDTH 16 0
BBX 11 13 2 -1
BITMAP
0400
1f00
64c0
c460
c400
6400
3f80
04c0
0460
c460
64c0
1f00
0400
ENDCHAR
STARTCHAR C045
ENCODING 37
SWIDTH 666 0
DWIDTH 16 0
BBX 12 12 2 0
BITMAP
3800
4c30
cc60
c8c0
7180
0300
0600
0ce0
1930
3330
6320
c1c0
ENDCHAR
STARTCHAR C046
ENCODING 38
SWIDTH 666 0
DWIDTH 16 0
BBX 12 13 3 -2
BITMAP
8080
c180
7f00
7f00
4910
7f20
f7a0
ffa0
dd80
dd80
3e00
7700
e380
ENDCHAR
STARTCHAR C047
ENCODING 39
SWIDTH 666 0
DWIDTH 16 0
BBX 3 5 6 7
BITMAP
e0
e0
60
c0
80
ENDCHAR
STARTCHAR C050
ENCODING 40
SWIDTH 666 0
DWIDTH 16 0
BBX 5 13 5 -1
BITMAP
38
60
60
c0
c0
c0
c0
c0
c0
c0
60
60
38
ENDCHAR
STARTCHAR C051
ENCODING 41
SWIDTH 666 0
DWIDTH 16 0
BBX 5 13 6 -1
BITMAP
e0
30
30
18
18
18
18
18
18
18
30
30
e0
ENDCHAR
STARTCHAR C052
ENCODING 42
SWIDTH 666 0
DWIDTH 16 0
BBX 10 10 3 0
BITMAP
0c00
0c00
ccc0
edc0
1e00
1e00
edc0
ccc0
0c00
0c00
ENDCHAR
STARTCHAR C053
ENCODING 43
SWIDTH 666 0
DWIDTH 16 0
BBX 12 12 2 -1
BITMAP
0600
0600
0600
0600
0600
fff0
fff0
0600
0600
0600
0600
0600
ENDCHAR
STARTCHAR C054
ENCODING 44
SWIDTH 666 0
DWIDTH 16 0
BBX 3 5 6 -2
BITMAP
e0
e0
60
c0
80
ENDCHAR
STARTCHAR C055
ENCODING 45
SWIDTH 666 0
DWIDTH 16 0
BBX 16 2 0 4
BITMAP
ffff
ffff
ENDCHAR
STARTCHAR C056
ENCODING 46
SWIDTH 666 0
DWIDTH 16 0
BBX 3 3 6 0
BITMAP
e0
e0
e0
ENDCHAR
STARTCHAR C057
ENCODING 47
SWIDTH 666 0
DWIDTH 16 0
BBX 16 16 0 -3
BITMAP
0001
0003
0006
000c
0018
0030
0060
00c0
0180
0300
0600
0c00
1800
3000
6000
c000
ENDCHAR
STARTCHAR C060
ENCODING 48
SWIDTH 666 0
DWIDTH 16 0
BBX 10 12 3 0
BITMAP
1e00
2100
6180
4080
c0c0
c0c0
c0c0
c0c0
4080
6180
2100
1e00
ENDCHAR
STARTCHAR C061
ENCODING 49
SWIDTH 666 0
DWIDTH 16 0
BBX 8 12 4 0
BITMAP
18
38
78
98
18
18
18
18
18
18
18
ff
ENDCHAR
STARTCHAR C062
ENCODING 50
SWIDTH 666 0
DWIDTH 16 0
BBX 11 12 2 0
BITMAP
1f00
60c0
c060
0060
0060
00c0
0300
0e00
3800
6000
c000
ffe0
ENDCHAR
STARTCHAR C063
ENCODING 51
SWIDTH 666 0
DWIDTH 16 0
BBX 11 12 2 0
BITMAP
1f00
60c0
c060
0060
00c0
0f00
00c0
0060
0060
c060
60c0
1f00
ENDCHAR
STARTCHAR C064
ENCODING 52
SWIDTH 666 0
DWIDTH 16 0
BBX 11 12 2 0
BITMAP
0180
0380
0780
0d80
1980
3180
6180
c180
ffe0
0180
0180
0180
ENDCHAR
STARTCHAR C065
ENCODING 53
SWIDTH 666 0
DWIDTH 16 0
BBX 11 12 2 0
BITMAP
ffc0
c000
c000
c000
c000
ff00
00c0
0060
0060
c060
60c0
1f00
ENDCHAR
STARTCHAR C066
ENCODING 54
SWIDTH 666 0
DWIDTH 16 0
BBX 11 12 2 0
BITMAP
0f00
30c0
6060
6000
c000
cf00
f0c0
c060
c060
c060
60c0
1f00
ENDCHAR
STARTCHAR C067
ENCODING 55
SWIDTH 666 0
DWIDTH 16 0
BBX 11 12 2 0
BITMAP
ffe0
0060
0060
00c0
0180
0300
0600
0c00
1800
3000
3000
3000
ENDCHAR
STARTCHAR C070
ENCODING 56
SWIDTH 666 0
DWIDTH 16 0
BBX 11 12 2 0
BITMAP
1f00
60c0
c060
c060
60c0
1f00
60c0
c060
c060
c060
60c0
1f00
ENDCHAR
STARTCHAR C071
ENCODING 57
SWIDTH 666 0
DWIDTH 16 0
BBX 11 12 2 0
BITMAP
1f00
60c0
c060
c060
c060
61e0
1e60
0060
00c0
c0c0
6180
1e00
ENDCHAR
STARTCHAR C072
ENCODING 58
SWIDTH 666 0
DWIDTH 16 0
BBX 3 9 6 0
BITMAP
e0
e0
e0
00
00
00
e0
e0
e0
ENDCHAR
STARTCHAR C073
ENCODING 59
SWIDTH 666 0
DWIDTH 16 0
BBX 3 11 6 -2
BITMAP
e0
e0
e0
00
00
00
e0
e0
60
c0
80
ENDCHAR
STARTCHAR C074
ENCODING 60
SWIDTH 666 0
DWIDTH 16 0
BBX 7 12 4 -1
BITMAP
06
0e
1c
38
70
e0
e0
70
38
1c
0e
06
ENDCHAR
STARTCHAR C075
ENCODING 61
SWIDTH 666 0
DWIDTH 16 0
BBX 12 7 2 1
BITMAP
fff0
fff0
0000
0000
0000
fff0
fff0
ENDCHAR
STARTCHAR C076
ENCODING 62
SWIDTH 666 0
DWIDTH 16 0
BBX 7 12 5 -1
BITMAP
c0
e0
70
38
1c
0e
0e
1c
38
70
e0
c0
ENDCHAR
STARTCHAR C077
ENCODING 63
SWIDTH 666 0
DWIDTH 16 0
BBX 9 12 3 -1
BITMAP
3e00
7f00
c180
c180
0180
0300
0600
0c00
0c00
0000
0c00
0c00
ENDCHAR
STARTCHAR C100
ENCODING 64
SWIDTH 666 0
DWIDTH 16 0
BBX 8 13 3 -2
BITMAP
18
3c
3c
3c
18
66
ff
bd
bd
bd
34
24
66
ENDCHAR
STARTCHAR C101
ENCODING 65
SWIDTH 666 0
DWIDTH 16 0
BBX 12 12 2 0
BITMAP
0600
0f00
0900
1980
1980
30c0
30c0
6060
7fe0
6060
c030
c030
ENDCHAR
STARTCHAR C102
ENCODING 66
SWIDTH 666 0
DWIDTH 16 0
BBX 11 12 2 0
BITMAP
ff00
c0c0
c060
c060
c0c0
ff80
c0c0
c060
c060
c060
c0c0
ff00
ENDCHAR
STARTCHAR C103
ENCODING 67
SWIDTH 666 0
DWIDTH 16 0
BBX 11 12 2 0
BITMAP
0f00
30c0
6060
6000
c000
c000
c000
c000
6000
6060
30c0
0f00
ENDCHAR
STARTCHAR C104
ENCODING 68
SWIDTH 666 0
DWIDTH 16 0
BBX 12 12 2 0
BITMAP
ff00
c0c0
c060
c060
c030
c030
c030
c030
c060
c060
c0c0
ff00
ENDCHAR
STARTCHAR C105
ENCODING 69
SWIDTH 666 0
DWIDTH 16 0
BBX 11 12 2 0
BITMAP
ffe0
c000
c000
c000
c000
ffc0
c000
c000
c000
c000
c000
ffe0
ENDCHAR
STARTCHAR C106
ENCODING 70
SWIDTH 666 0
DWIDTH 16 0
BBX 11 12 2 0
BITMAP
ffe0
c000
c000
c000
c000
c000
ffc0
c000
c000
c000
c000
c000
ENDCHAR
STARTCHAR C107
ENCODING 71
SWIDTH 666 0
DWIDTH 16 0
BBX 11 12 2 0
BITMAP
0f00
30c0
6060
6000
c000
c000
c3e0
c060
6060
6060
30e0
0f60
ENDCHAR
STARTCHAR C110
ENCODING 72
SWIDTH 666 0
DWIDTH 16 0
BBX 12 12 2 0
BITMAP
c030
c030
c030
c030
c030
fff0
c030
c030
c030
c030
c030
c030
ENDCHAR
STARTCHAR C111
ENCODING 73
SWIDTH 666 0
DWIDTH 16 0
BBX 8 12 4 0
BITMAP
ff
18
18
18
18
18
18
18
18
18
18
ff
ENDCHAR
STARTCHAR C112
ENCODING 74
SWIDTH 666 0
DWIDTH 16 0
BBX 9 12 4 0
BITMAP
7f80
0180
0180
0180
0180
0180
0180
0180
0300
0300
0600
f800
ENDCHAR
STARTCHAR C113
ENCODING 75
SWIDTH 666 0
DWIDTH 16 0
BBX 12 12 2 0
BITMAP
c070
c0e0
c180
c300
c600
cc00
f800
ce00
c300
c180
c0e0
c070
ENDCHAR
STARTCHAR C114
ENCODING 76
SWIDTH 666 0
DWIDTH 16 0
BBX 11 12 2 0
BITMAP
c000
c000
c000
c000
c000
c000
c000
c000
c000
c000
c000
ffe0
ENDCHAR
STARTCHAR C115
ENCODING 77
SWIDTH 666 0
DWIDTH 16 0
BBX 12 12 2 0
BITMAP
8010
c030
e070
f0f0
d9b0
cf30
c630
c030
c030
c030
c030
c030
ENDCHAR
STARTCHAR C116
ENCODING 78
SWIDTH 666 0
DWIDTH 16 0
BBX 12 12 2 0
BITMAP
c030
e030
f030
d830
cc30
c630
c330
c1b0
c0f0
c070
c030
c030
ENDCHAR
STARTCHAR C117
ENCODING 79
SWIDTH 666 0
DWIDTH 16 0
BBX 12 12 2 0
BITMAP
0f00
30c0
6060
6060
c030
c030
c030
c030
6060
6060
30c0
0f00
ENDCHAR
STARTCHAR C120
ENCODING 80
SWIDTH 666 0
DWIDTH 16 0
BBX 11 12 2 0
BITMAP
ff00
c0c0
c060
c060
c060
c0c0
ff80
c000
c000
c000
c000
c000
ENDCHAR
STARTCHAR C121
ENCODING 81
SWIDTH 666 0
DWIDTH 16 0
BBX 12 15 2 -3
BITMAP
0f00
30c0
6060
6060
c030
c030
c030
c030
6060
6c60
32c0
0f00
0100
01c0
00c0
ENDCHAR
STARTCHAR C122
ENCODING 82
SWIDTH 666 0
DWIDTH 16 0
BBX 11 12 2 0
BITMAP
ff00
c0c0
c060
c060
c060
c0c0
ff80
c180
c0c0
c0c0
c060
c060
ENDCHAR
STARTCHAR C123
ENCODING 83
SWIDTH 666 0
DWIDTH 16 0
BBX 11 12 2 0
BITMAP
1f00
60c0
c060
c000
6000
3f00
01c0
0060
0060
c060
60c0
1f00
ENDCHAR
STARTCHAR C124
ENCODING 84
SWIDTH 666 0
DWIDTH 16 0
BBX 12 12 2 0
BITMAP
fff0
0600
0600
0600
0600
0600
0600
0600
0600
0600
0600
0600
ENDCHAR
STARTCHAR C125
ENCODING 85
SWIDTH 666 0
DWIDTH 16 0
BBX 12 12 2 0
BITMAP
c030
c030
c030
c030
c030
c030
c030
c030
6060
6060
30c0
0f00
ENDCHAR
STARTCHAR C126
ENCODING 86
SWIDTH 666 0
DWIDTH 16 0
BBX 12 12 2 0
BITMAP
c030
c030
6060
6060
6060
30c0
30c0
1980
1980
0900
0f00
0600
ENDCHAR
STARTCHAR C127
ENCODING 87
SWIDTH 666 0
DWIDTH 16 0
BBX 12 12 2 0
BITMAP
c030
c030
c030
c030
c630
c630
6660
6f60
6960
6960
39c0
30c0
ENDCHAR
STARTCHAR C130
ENCODING 88
SWIDTH 666 0
DWIDTH 16 0
BBX 11 12 2 0
BITMAP
c060
c060
c060
60c0
3180
1b00
0e00
1b00
3180
60c0
c060
c060
ENDCHAR
STARTCHAR C131
ENCODING 89
SWIDTH 666 0
DWIDTH 16 0
BBX 12 12 2 0
BITMAP
c030
c030
c030
6060
30c0
1980
0f00
0600
0600
0600
0600
0600
ENDCHAR
STARTCHAR C132
ENCODING 90
SWIDTH 666 0
DWIDTH 16 0
BBX 12 12 2 0
BITMAP
fff0
0030
0060
00c0
0180
0300
0600
0c00
1800
3000
6000
fff0
ENDCHAR
STARTCHAR C133
ENCODING 91
SWIDTH 666 0
DWIDTH 16 0
BBX 5 13 5 -1
BITMAP
f8
c0
c0
c0
c0
c0
c0
c0
c0
c0
c0
c0
f8
ENDCHAR
STARTCHAR C134
ENCODING 92
SWIDTH 666 0
DWIDTH 16 0
BBX 16 16 0 -3
BITMAP
8000
c000
6000
3000
1800
0c00
0600
0300
0180
00c0
0060
0030
0018
000c
0006
0003
ENDCHAR
STARTCHAR C135
ENCODING 93
SWIDTH 666 0
DWIDTH 16 0
BBX 5 13 6 -1
BITMAP
f8
18
18
18
18
18
18
18
18
18
18
18
f8
ENDCHAR
STARTCHAR C136
ENCODING 94
SWIDTH 666 0
DWIDTH 16 0
BBX 10 5 3 5
BITMAP
0c00
1e00
3300
6180
c0c0
ENDCHAR
STARTCHAR C137
ENCODING 95
SWIDTH 666 0
DWIDTH 16 0
BBX 14 2 1 -3
BITMAP
fffc
fffc
ENDCHAR
STARTCHAR C140
ENCODING 96
SWIDTH 666 0
DWIDTH 16 0
BBX 3 5 7 7
BITMAP
e0
e0
c0
60
20
ENDCHAR
STARTCHAR C141
ENCODING 97
SWIDTH 666 0
DWIDTH 16 0
BBX 12 9 2 0
BITMAP
7f80
4060
0030
1ff0
6030
c030
c070
60f0
1f30
ENDCHAR
STARTCHAR C142
ENCODING 98
SWIDTH 666 0
DWIDTH 16 0
BBX 12 12 2 0
BITMAP
c000
c000
c000
cf00
f0c0
e060
c030
c030
c030
e060
f0c0
cf00
ENDCHAR
STARTCHAR C143
ENCODING 99
SWIDTH 666 0
DWIDTH 16 0
BBX 11 9 2 0
BITMAP
0f80
3060
6020
c000
c000
c000
6000
3060
0f80
ENDCHAR
STARTCHAR C144
ENCODING 100
SWIDTH 666 0
DWIDTH 16 0
BBX 12 12 2 0
BITMAP
0030
0030
0030
0f30
30f0
6070
c030
c030
c030
6070
30f0
0f30
ENDCHAR
STARTCHAR C145
ENCODING 101
SWIDTH 666 0
DWIDTH 16 0
BBX 12 9 2 0
BITMAP
0f80
3060
6030
c030
fff0
c000
6000
3030
0fc0
ENDCHAR
STARTCHAR C146
ENCODING 102
SWIDTH 666 0
DWIDTH 16 0
BBX 8 12 4 0
BITMAP
07
18
30
30
ff
30
30
30
30
30
30
30
ENDCHAR
STARTCHAR C147
ENCODING 103
SWIDTH 666 0
DWIDTH 16 0
BBX 12 12 2 -3
BITMAP
0f30
30f0
6070
c030
c030
c030
6070
30f0
0f30
0030
c060
3f80
ENDCHAR
STARTCHAR C150
ENCODING 104
SWIDTH 666 0
DWIDTH 16 0
BBX 12 12 2 0
BITMAP
c000
c000
c000
cf00
f0c0
e060
c030
c030
c030
c030
c030
c030
ENDCHAR
STARTCHAR C151
ENCODING 105
SWIDTH 666 0
DWIDTH 16 0
BBX 6 12 4 0
BITMAP
0c
0c
00
fc
0c
0c
0c
0c
0c
0c
0c
0c
ENDCHAR
STARTCHAR C152
ENCODING 106
SWIDTH 666 0
DWIDTH 16 0
BBX 6 15 4 -3
BITMAP
0c
0c
00
fc
0c
0c
0c
0c
0c
0c
0c
0c
0c
18
e0
ENDCHAR
STARTCHAR C153
ENCODING 107
SWIDTH 666 0
DWIDTH 16 0
BBX 12 12 2 0
BITMAP
c000
c000
c000
c070
c0e0
c380
ce00
f800
ce00
c380
c0e0
c070
ENDCHAR
STARTCHAR C154
ENCODING 108
SWIDTH 666 0
DWIDTH 16 0
BBX 6 12 4 0
BITMAP
fc
0c
0c
0c
0c
0c
0c
0c
0c
0c
0c
0c
ENDCHAR
STARTCHAR C155
ENCODING 109
SWIDTH 666 0
DWIDTH 16 0
BBX 12 9 2 0
BITMAP
d9c0
e620
c630
c630
c630
c630
c630
c630
c630
ENDCHAR
STARTCHAR C156
ENCODING 110
SWIDTH 666 0
DWIDTH 16 0
BBX 12 9 2 0
BITMAP
cf00
f0c0
e060
c030
c030
c030
c030
c030
c030
ENDCHAR
STARTCHAR C157
ENCODING 111
SWIDTH 666 0
DWIDTH 16 0
BBX 12 9 2 0
BITMAP
0f00
30c0
6060
c030
c030
c030
6060
30c0
0f00
ENDCHAR
STARTCHAR C160
ENCODING 112
SWIDTH 666 0
DWIDTH 16 0
BBX 12 12 2 -3
BITMAP
cf00
f0c0
e060
c030
c030
c030
e060
f0c0
cf00
c000
c000
c000
ENDCHAR
STARTCHAR C161
ENCODING 113
SWIDTH 666 0
DWIDTH 16 0
BBX 12 12 2 -3
BITMAP
0f30
30f0
6070
c030
c030
c030
6070
30f0
0f30
0030
0030
0030
ENDCHAR
STARTCHAR C162
ENCODING 114
SWIDTH 666 0
DWIDTH 16 0
BBX 11 9 2 0
BITMAP
cfc0
f060
e060
c000
c000
c000
c000
c000
c000
ENDCHAR
STARTCHAR C163
ENCODING 115
SWIDTH 666 0
DWIDTH 16 0
BBX 12 9 2 0
BITMAP
1fe0
6030
c000
e000
7fe0
0070
0030
c060
7f80
ENDCHAR
STARTCHAR C164
ENCODING 116
SWIDTH 666 0
DWIDTH 16 0
BBX 8 12 4 0
BITMAP
10
30
30
ff
30
30
30
30
30
30
18
07
ENDCHAR
STARTCHAR C165
ENCODING 117
SWIDTH 666 0
DWIDTH 16 0
BBX 12 9 2 0
BITMAP
c030
c030
c030
c030
c030
c030
6070
30f0
0f30
ENDCHAR
STARTCHAR C166
ENCODING 118
SWIDTH 666 0
DWIDTH 16 0
BBX 12 9 2 0
BITMAP
c030
c030
6060
6060
30c0
1980
1980
0f00
0600
ENDCHAR
STARTCHAR C167
ENCODING 119
SWIDTH 666 0
DWIDTH 16 0
BBX 12 9 2 0
BITMAP
c030
c030
c030
c630
6660
6f60
6960
39c0
30c0
ENDCHAR
STARTCHAR C170
ENCODING 120
SWIDTH 666 0
DWIDTH 16 0
BBX 11 9 2 0
BITMAP
c060
60c0
3180
1b00
0e00
1b00
3180
60c0
c060
ENDCHAR
STARTCHAR C171
ENCODING 121
SWIDTH 666 0
DWIDTH 16 0
BBX 12 12 2 -3
BITMAP
c030
c030
c030
c030
c030
c030
6070
30f0
0f30
0030
c060
3f80
ENDCHAR
STARTCHAR C172
ENCODING 122
SWIDTH 666 0
DWIDTH 16 0
BBX 10 9 3 0
BITMAP
ffc0
0180
0300
0600
0c00
1800
3000
6000
ffc0
ENDCHAR
STARTCHAR C173
ENCODING 123
SWIDTH 666 0
DWIDTH 16 0
BBX 14 15 1 -2
BITMAP
0c00
00e0
3db0
6700
c310
1ac8
4724
8300
1fe0
2310
4fc8
6018
7ff8
3ff0
1fe0
ENDCHAR
STARTCHAR C174
ENCODING 124
SWIDTH 666 0
DWIDTH 16 0
BBX 2 16 7 -3
BITMAP
c0
c0
c0
c0
c0
c0
c0
c0
c0
c0
c0
c0
c0
c0
c0
c0
ENDCHAR
STARTCHAR C175
ENCODING 125
SWIDTH 666 0
DWIDTH 16 0
BBX 16 15 0 -3
BITMAP
7828
0dc0
0700
0060
a0b3
1212
0c0c
0000
18f0
2518
420c
00f0
391c
4c4e
c383
ENDCHAR
STARTCHAR C176
ENCODING 126
SWIDTH 666 0
DWIDTH 16 0
BBX 10 4 3 7
BITMAP
3040
7c40
8f80
8300
ENDCHAR
STARTCHAR C240
ENCODING 160
SWIDTH 666 0
DWIDTH 16 0
BBX 15 13 1 -2
BITMAP
3800
5600
ff80
e7e0
c3f8
c3ee
e7f8
ffa4
fdd8
df20
e904
0440
9000
ENDCHAR
STARTCHAR C241
ENCODING 161
SWIDTH 666 0
DWIDTH 16 0
BBX 6 9 5 0
BITMAP
30
30
78
30
78
9c
bc
fc
78
ENDCHAR
STARTCHAR C242
ENCODING 162
SWIDTH 666 0
DWIDTH 16 0
BBX 9 12 3 -1
BITMAP
3e00
4100
8080
8080
8080
8080
4100
2200
1c00
3e00
3e00
1c00
ENDCHAR
STARTCHAR C243
ENCODING 163
SWIDTH 666 0
DWIDTH 16 0
BBX 12 10 2 -1
BITMAP
1080
5fa0
d6b0
eeb0
d570
fff0
7fe0
0f00
0f00
1f80
ENDCHAR
STARTCHAR C244
ENCODING 164
SWIDTH 666 0
DWIDTH 16 0
BBX 14 10 1 -2
BITMAP
0180
0cc0
1b60
0780
3360
78f0
3660
4f18
e6bc
f1d8
ENDCHAR
STARTCHAR C245
ENCODING 165
SWIDTH 666 0
DWIDTH 16 0
BBX 14 14 1 -2
BITMAP
3000
3000
7800
7800
fbf0
97f8
8ff4
9fec
e854
52ac
f034
1528
1030
1fe0
ENDCHAR
STARTCHAR C246
ENCODING 166
SWIDTH 666 0
DWIDTH 16 0
BBX 11 13 2 -1
BITMAP
1f00
3f80
7fc0
7fc0
e1e0
c8e0
d0e0
c0e0
c0e0
61c0
7fc0
3f80
1f00
ENDCHAR
STARTCHAR C247
ENCODING 167
SWIDTH 666 0
DWIDTH 16 0
BBX 14 14 1 -3
BITMAP
0380
0440
0440
6240
9198
11e4
0f84
0180
0180
0260
0c10
1010
1020
0800
ENDCHAR
STARTCHAR C250
ENCODING 168
SWIDTH 666 0
DWIDTH 16 0
BBX 15 12 0 -2
BITMAP
17bc
6f76
5ee8
bdf2
bde4
ffea
8914
bfea
bff6
bdec
bdf8
fff0
ENDCHAR
STARTCHAR C251
ENCODING 169
SWIDTH 666 0
DWIDTH 16 0
BBX 12 13 3 -1
BITMAP
0010
0030
0020
0060
00c0
0180
0300
1e00
0c00
3e00
7000
e000
4000
ENDCHAR
STARTCHAR C252
ENCODING 170
SWIDTH 666 0
DWIDTH 16 0
BBX 9 7 3 0
BITMAP
3e00
7d00
fe80
7d00
3a00
1c00
0800
ENDCHAR
STARTCHAR C253
ENCODING 171
SWIDTH 666 0
DWIDTH 16 0
BBX 12 12 2 -2
BITMAP
1c00
1f80
38e0
3370
79f0
6cd0
f1d0
9fa0
e7a0
3940
0e40
0380
ENDCHAR
STARTCHAR C254
ENCODING 172
SWIDTH 666 0
DWIDTH 16 0
BBX 16 9 0 -2
BITMAP
6d80
9260
6dd0
0050
0020
0050
005a
0025
001a
ENDCHAR
STARTCHAR C255
ENCODING 173
SWIDTH 666 0
DWIDTH 16 0
BBX 16 16 0 -3
BITMAP
ffff
bffd
dff9
aff1
d811
a811
d811
a811
d811
a811
d811
aff1
d001
a001
c001
ffff
ENDCHAR
STARTCHAR C256
ENCODING 174
SWIDTH 666 0
DWIDTH 16 0
BBX 2 2 7 4
BITMAP
c0
c0
ENDCHAR
STARTCHAR C257
ENCODING 175
SWIDTH 666 0
DWIDTH 16 0
BBX 10 10 3 0
BITMAP
0080
01c0
0280
0500
0a00
1c00
3800
5000
e000
c000
ENDCHAR
STARTCHAR C260
ENCODING 176
SWIDTH 666 0
DWIDTH 16 0
BBX 5 5 5 1
BITMAP
70
f8
e8
c8
70
ENDCHAR
STARTCHAR C261
ENCODING 177
SWIDTH 666 0
DWIDTH 16 0
BBX 14 16 1 -3
BITMAP
e55c
ea9c
e55c
e29c
e55c
8290
4548
aa94
e55c
ea9c
e55c
e29c
e55c
8290
4548
aa94
ENDCHAR
STARTCHAR C262
ENCODING 178
SWIDTH 666 0
DWIDTH 16 0
BBX 16 15 0 -2
BITMAP
1c1c
fdfd
e1e1
aaaa
5555
baba
fbfb
c3c3
5555
aaaa
5555
aaaa
5555
aaaa
5555
ENDCHAR
STARTCHAR C263
ENCODING 179
SWIDTH 666 0
DWIDTH 16 0
BBX 16 16 0 -3
BITMAP
1ff0
f2aa
f559
fffa
e549
eaa8
d554
aaaa
0000
6aae
700e
754e
72ae
4148
22a4
554a
ENDCHAR
STARTCHAR C264
ENCODING 180
SWIDTH 666 0
DWIDTH 16 0
BBX 16 15 0 -2
BITMAP
1ff0
f2aa
f559
fffa
e549
eaa8
d554
aaaa
0000
aaaa
5555
aaaa
5555
aaaa
5555
ENDCHAR
STARTCHAR C265
ENCODING 181
SWIDTH 666 0
DWIDTH 16 0
BBX 14 3 1 9
BITMAP
fffc
d55c
7ff8
ENDCHAR
STARTCHAR C266
ENCODING 182
SWIDTH 666 0
DWIDTH 16 0
BBX 3 14 1 -2
BITMAP
c0
a0
e0
a0
e0
a0
e0
a0
e0
a0
e0
a0
e0
c0
ENDCHAR
STARTCHAR C267
ENCODING 183
SWIDTH 666 0
DWIDTH 16 0
BBX 14 12 1 -1
BITMAP
7ff8
fffc
fffc
77fc
dd74
77d4
fff4
ffc4
77fc
dd54
77fc
fffc
ENDCHAR
STARTCHAR C270
ENCODING 184
SWIDTH 666 0
DWIDTH 16 0
BBX 15 16 0 -3
BITMAP
2222
8888
2222
8888
2222
8888
23a2
8a48
2262
8988
2222
8888
2222
8888
2222
8888
ENDCHAR
STARTCHAR C271
ENCODING 185
SWIDTH 666 0
DWIDTH 16 0
BBX 16 16 0 -3
BITMAP
5555
aaaa
5555
aaaa
5555
aaaa
55d5
aa6a
5655
abaa
5555
aaaa
5555
aaaa
5555
aaaa
ENDCHAR
STARTCHAR C272
ENCODING 186
SWIDTH 666 0
DWIDTH 16 0
BBX 11 11 2 -1
BITMAP
00c0
01e0
1be0
1bc0
0f80
de00
ff80
3d80
7800
ec00
cc00
ENDCHAR
STARTCHAR C273
ENCODING 187
SWIDTH 666 0
DWIDTH 16 0
BBX 11 10 3 -2
BITMAP
3800
1c00
9a00
fe00
fb00
6700
3fe0
0f80
0300
0200
ENDCHAR
STARTCHAR C274
ENCODING 188
SWIDTH 666 0
DWIDTH 16 0
BBX 13 14 2 -2
BITMAP
00f8
00f8
0000
03f8
03f8
0008
0ff0
0fe8
0050
3fa8
3fd0
00a8
ff50
fea8
ENDCHAR
STARTCHAR C275
ENCODING 189
SWIDTH 666 0
DWIDTH 16 0
BBX 7 6 4 1
BITMAP
7c
c6
82
82
c6
7c
ENDCHAR
STARTCHAR C276
ENCODING 190
SWIDTH 666 0
DWIDTH 16 0
BBX 14 12 1 -3
BITMAP
7000
e000
ce00
9c00
39c0
7380
e738
ce70
9ce4
39cc
739c
e738
ENDCHAR
STARTCHAR C277
ENCODING 191
SWIDTH 666 0
DWIDTH 16 0
BBX 14 15 1 -3
BITMAP
7ff8
dfec
7ff8
0000
7ff8
dfec
7ff8
0000
7ff8
dfec
7ff8
0000
7ff8
dfec
7ff8
ENDCHAR
STARTCHAR C300
ENCODING 192
SWIDTH 666 0
DWIDTH 16 0
BBX 11 13 2 -1
BITMAP
1f00
3f80
7bc0
60c0
fbe0
e0e0
fbe0
e0e0
e0e0
7bc0
7fc0
3f80
1f00
ENDCHAR
STARTCHAR C301
ENCODING 193
SWIDTH 666 0
DWIDTH 16 0
BBX 14 12 1 -1
BITMAP
0210
3738
5b7c
77cc
67e4
4464
a060
00c0
0780
0c10
1820
0fc0
ENDCHAR
STARTCHAR C302
ENCODING 194
SWIDTH 666 0
DWIDTH 16 0
BBX 13 5 1 5
BITMAP
3560
7ff0
f778
e238
4010
ENDCHAR
STARTCHAR C303
ENCODING 195
SWIDTH 666 0
DWIDTH 16 0
BBX 11 14 1 -2
BITMAP
1800
1800
1800
6600
bd00
bd00
3c00
3fc0
7fa0
5fc0
4840
2940
0940
0840
ENDCHAR
STARTCHAR C304
ENCODING 196
SWIDTH 666 0
DWIDTH 16 0
BBX 14 16 0 -3
BITMAP
03c0
05e0
0fe0
0ee0
50e0
c1c0
0380
0d00
37e0
6bf8
57f8
effc
dfec
cc6c
0c1c
00f8
ENDCHAR
STARTCHAR C305
ENCODING 197
SWIDTH 666 0
DWIDTH 16 0
BBX 8 14 2 -2
BITMAP
3c
6a
7e
e7
e7
a5
bd
bd
bd
b5
b5
34
76
f7
ENDCHAR
STARTCHAR C306
ENCODING 198
SWIDTH 666 0
DWIDTH 16 0
BBX 12 11 1 0
BITMAP
38e0
5f20
8e70
8ef0
7fe0
1ce0
3cc0
4de0
4f70
6f30
39f0
ENDCHAR
STARTCHAR C307
ENCODING 199
SWIDTH 666 0
DWIDTH 16 0
BBX 7 12 5 -1
BITMAP
10
10
10
38
7c
44
28
fe
ba
54
6c
6c
ENDCHAR
STARTCHAR C310
ENCODING 200
SWIDTH 666 0
DWIDTH 16 0
BBX 14 15 1 -3
BITMAP
0780
0fc0
1320
1fe0
0cc0
0780
7ff8
f57c
fafc
cd4c
cacc
6fd8
6ed8
0ee0
3ef8
ENDCHAR
STARTCHAR C311
ENCODING 201
SWIDTH 666 0
DWIDTH 16 0
BBX 16 16 0 -3
BITMAP
5555
a82a
5015
a01a
400d
a006
4007
a006
4007
a006
5007
a80e
501d
aafa
5555
aaaa
ENDCHAR
STARTCHAR C312
ENCODING 202
SWIDTH 666 0
DWIDTH 16 0
BBX 11 13 2 -1
BITMAP
1f00
3b80
71c0
60c0
fbe0
f1e0
f1e0
f1e0
fbe0
60c0
71c0
3b80
1f00
ENDCHAR
STARTCHAR C313
ENCODING 203
SWIDTH 666 0
DWIDTH 16 0
BBX 13 14 1 -2
BITMAP
0c00
1e00
1620
3f20
1e20
0c20
1ee0
3fa0
6f80
3f00
0f10
5fb8
f9f0
30c0
ENDCHAR
STARTCHAR C314
ENCODING 204
SWIDTH 666 0
DWIDTH 16 0
BBX 8 13 2 -2
BITMAP
38
2c
7c
68
0e
3e
5f
8f
17
07
0d
39
07
ENDCHAR
STARTCHAR C315
ENCODING 205
SWIDTH 666 0
DWIDTH 16 0
BBX 8 13 3 -2
BITMAP
3c
3e
15
3c
7e
ff
bf
bd
bd
bd
b6
36
77
ENDCHAR
STARTCHAR C316
ENCODING 206
SWIDTH 666 0
DWIDTH 16 0
BBX 13 15 2 -3
BITMAP
3000
7800
7800
3000
cc00
fc00
fc00
7800
78c0
7bf0
7ff8
7f18
3e30
1860
0080
ENDCHAR
STARTCHAR C317
ENCODING 207
SWIDTH 666 0
DWIDTH 16 0
BBX 12 15 1 -3
BITMAP
1f00
7fc0
2480
3f80
1f00
1100
7f60
ef70
f0f0
dfb0
9f90
dfb0
dfb0
1f80
7df0
ENDCHAR
STARTCHAR C320
ENCODING 208
SWIDTH 666 0
DWIDTH 16 0
BBX 14 12 1 -2
BITMAP
0700
1e80
3f40
7ae0
f560
eab0
d550
eaf0
7538
1e3c
0074
007c
ENDCHAR
STARTCHAR C321
ENCODING 209
SWIDTH 666 0
DWIDTH 16 0
BBX 13 14 1 -2
BITMAP
0380
0d60
1ef0
b7b0
ad60
e390
f660
fbc0
ec20
e7f0
47f0
0620
0630
0818
ENDCHAR
STARTCHAR C322
ENCODING 210
SWIDTH 666 0
DWIDTH 16 0
BBX 13 13 2 -1
BITMAP
3c00
6a00
7600
7600
7620
3c60
3e70
7f58
fc20
dee0
3fe0
1fc0
1f00
ENDCHAR
STARTCHAR C323
ENCODING 211
SWIDTH 666 0
DWIDTH 16 0
BBX 11 12 2 -2
BITMAP
3800
7c60
5ec0
76c0
46c0
ae60
1c60
1c60
38e0
3fc0
3f80
1f00
ENDCHAR
STARTCHAR C324
ENCODING 212
SWIDTH 666 0
DWIDTH 16 0
BBX 10 14 2 -2
BITMAP
3f00
f500
7f80
f180
f180
eec0
d1c0
dfc0
77c0
3780
0b00
1b80
3300
3100
ENDCHAR
STARTCHAR C325
ENCODING 213
SWIDTH 666 0
DWIDTH 16 0
BBX 12 14 2 -2
BITMAP
3e00
7f00
aa80
ffa0
ebb0
aae0
bec0
fe00
be00
3600
3600
3600
7700
e300
ENDCHAR
STARTCHAR C326
ENCODING 214
SWIDTH 666 0
DWIDTH 16 0
BBX 12 14 2 -2
BITMAP
0780
4cc0
7b70
5860
ffe0
ffe0
7fe0
7fe0
5fe0
5fe0
57e0
5fe0
4760
4c20
ENDCHAR
STARTCHAR C327
ENCODING 215
SWIDTH 666 0
DWIDTH 16 0
BBX 12 13 2 -2
BITMAP
3e00
2700
1300
1300
6e80
dd80
de80
5e80
4d80
6f80
0e30
0de0
0780
ENDCHAR
STARTCHAR C330
ENCODING 216
SWIDTH 666 0
DWIDTH 16 0
BBX 8 11 4 -1
BITMAP
db
ff
80
f7
b5
81
ee
ee
81
ff
db
ENDCHAR
STARTCHAR C331
ENCODING 217
SWIDTH 666 0
DWIDTH 16 0
BBX 12 12 2 -1
BITMAP
0f00
1f80
35c0
3f40
7b60
fef0
d9b0
9f90
dfb0
d9b0
1980
79f0
ENDCHAR
STARTCHAR C332
ENCODING 218
SWIDTH 666 0
DWIDTH 16 0
BBX 11 11 2 -1
BITMAP
0400
0e00
0e00
0400
3b80
7fc0
ce60
8e20
0b80
1080
38c0
ENDCHAR
STARTCHAR C333
ENCODING 219
SWIDTH 666 0
DWIDTH 16 0
BBX 14 12 1 -1
BITMAP
3ff0
aa14
b414
aa14
3410
2a10
3410
1a20
2c50
56a8
b334
6018
ENDCHAR
STARTCHAR C334
ENCODING 220
SWIDTH 666 0
DWIDTH 16 0
BBX 15 14 0 -2
BITMAP
4444
eeee
aaaa
eeee
eeee
eeee
eeee
eeee
eeee
eeee
eeee
aaaa
eeee
4444
ENDCHAR
STARTCHAR C335
ENCODING 221
SWIDTH 666 0
DWIDTH 16 0
BBX 15 14 0 -2
BITMAP
17b8
6f74
5eea
bdf4
bde8
fff2
30c4
ffea
8914
bfea
bff6
bdec
bdf8
fff0
ENDCHAR
STARTCHAR C336
ENCODING 222
SWIDTH 666 0
DWIDTH 16 0
BBX 11 13 2 -1
BITMAP
1b00
3180
60c0
7bc0
f1e0
e4e0
eee0
e4e0
f1e0
7bc0
60c0
3180
1b00
ENDCHAR
STARTCHAR C337
ENCODING 223
SWIDTH 666 0
DWIDTH 16 0
BBX 11 5 2 -2
BITMAP
7fc0
eae0
5540
6040
ffe0
ENDCHAR
STARTCHAR C340
ENCODING 224
SWIDTH 666 0
DWIDTH 16 0
BBX 12 12 2 -2
BITMAP
0f00
3fc0
4fe0
5fa0
fed0
ffa0
bf50
ffa0
7d40
6aa0
3540
0a00
ENDCHAR
STARTCHAR C341
ENCODING 225
SWIDTH 666 0
DWIDTH 16 0
BBX 13 9 1 -2
BITMAP
0070
1b78
27b0
07c0
7b20
ba90
ea50
9a40
3240
ENDCHAR
STARTCHAR C342
ENCODING 226
SWIDTH 666 0
DWIDTH 16 0
BBX 14 12 1 -2
BITMAP
0700
1f80
7fc0
bfa0
73c4
f3e0
7ff0
0f70
4f20
1608
0040
2000
ENDCHAR
STARTCHAR C343
ENCODING 227
SWIDTH 666 0
DWIDTH 16 0
BBX 11 12 2 -2
BITMAP
1800
6800
d800
1f80
3fc0
17e0
03e0
00e0
0860
1060
11c0
0f00
ENDCHAR
STARTCHAR C344
ENCODING 228
SWIDTH 666 0
DWIDTH 16 0
BBX 16 12 0 -1
BITMAP
1200
1607
3c0e
15f0
7ff8
f7f8
f5f8
05e8
0908
0508
0d18
0300
ENDCHAR
STARTCHAR C345
ENCODING 229
SWIDTH 666 0
DWIDTH 16 0
BBX 11 10 2 2
BITMAP
1f00
7fc0
7fc0
f3e0
ede0
d2e0
d2e0
6dc0
73c0
1f00
ENDCHAR
STARTCHAR C346
ENCODING 230
SWIDTH 666 0
DWIDTH 16 0
BBX 14 12 1 0
BITMAP
0018
0004
0004
8804
d804
fff8
aff8
fbfc
f7dc
e7dc
0c38
79e0
ENDCHAR
STARTCHAR C347
ENCODING 231
SWIDTH 666 0
DWIDTH 16 0
BBX 12 12 1 -2
BITMAP
e070
78e0
3fc0
1680
1680
1f80
0f40
36e0
79a0
6d20
0d80
1980
ENDCHAR
STARTCHAR C350
ENCODING 232
SWIDTH 666 0
DWIDTH 16 0
BBX 7 10 4 -1
BITMAP
10
38
7c
54
28
ee
ba
38
6c
6c
ENDCHAR
STARTCHAR C351
ENCODING 233
SWIDTH 666 0
DWIDTH 16 0
BBX 9 8 4 -1
BITMAP
5400
7e00
3a00
7c00
b880
bf00
2800
6c00
ENDCHAR
STARTCHAR C352
ENCODING 234
SWIDTH 666 0
DWIDTH 16 0
BBX 12 11 1 -1
BITMAP
0400
0e00
6f40
fee0
ffe0
e4f0
e4f0
fff0
7fe0
3fc0
0f80
ENDCHAR
STARTCHAR C353
ENCODING 235
SWIDTH 666 0
DWIDTH 16 0
BBX 7 11 4 -1
BITMAP
44
7c
54
38
6c
fe
ba
ba
38
28
6c
ENDCHAR
STARTCHAR C354
ENCODING 236
SWIDTH 666 0
DWIDTH 16 0
BBX 10 10 4 -1
BITMAP
1000
1080
3940
7c80
3b80
ee80
b880
5c80
6c80
ce80
ENDCHAR
STARTCHAR C355
ENCODING 237
SWIDTH 666 0
DWIDTH 16 0
BBX 9 11 3 -1
BITMAP
1c00
1c00
1c00
1c00
3e00
7f00
dd80
be80
3600
3600
7700
ENDCHAR
STARTCHAR C356
ENCODING 238
SWIDTH 666 0
DWIDTH 16 0
BBX 12 13 1 -2
BITMAP
1800
3c00
3c00
3800
7be0
6bc0
f7c0
ed00
6b00
2780
17c0
0fe0
0ff0
ENDCHAR
STARTCHAR C357
ENCODING 239
SWIDTH 666 0
DWIDTH 16 0
BBX 10 13 1 -1
BITMAP
0600
0c00
1800
3000
6700
6a80
b740
1880
0f00
0f80
0f80
0d80
18c0
ENDCHAR
STARTCHAR C360
ENCODING 240
SWIDTH 666 0
DWIDTH 16 0
BBX 10 14 2 -1
BITMAP
ffc0
6b80
3f00
3f00
1e00
1e00
1e00
1e00
0c00
0c00
0c00
0c00
0800
0800
ENDCHAR
STARTCHAR C361
ENCODING 241
SWIDTH 666 0
DWIDTH 16 0
BBX 16 11 0 -1
BITMAP
003a
01fd
07fc
2bfc
3bfe
3dfe
6dfc
6dec
fb8c
f580
6580
ENDCHAR
STARTCHAR C362
ENCODING 242
SWIDTH 666 0
DWIDTH 16 0
BBX 14 9 1 -2
BITMAP
4bf0
7ff8
57fc
57fc
2f6c
fecc
66d8
0c30
0060
ENDCHAR
STARTCHAR C363
ENCODING 243
SWIDTH 666 0
DWIDTH 16 0
BBX 13 10 2 -2
BITMAP
0200
0400
0b80
47c0
3f88
7e70
fb80
aa60
2910
0880
ENDCHAR
STARTCHAR C364
ENCODING 244
SWIDTH 666 0
DWIDTH 16 0
BBX 15 4 1 -3
BITMAP
1550
3ff8
3338
fffe
ENDCHAR
STARTCHAR C365
ENCODING 245
SWIDTH 666 0
DWIDTH 16 0
BBX 13 13 2 -1
BITMAP
0c00
1e00
7600
fe00
ee00
1e00
3fe0
7ff0
7fe8
4828
48a0
48a0
0820
ENDCHAR
STARTCHAR C366
ENCODING 246
SWIDTH 666 0
DWIDTH 16 0
BBX 13 13 1 -2
BITMAP
13c0
27e0
4f90
ddc8
fbe0
f870
e8b8
70f8
3ef8
9dd8
4f90
3f20
1e40
ENDCHAR
STARTCHAR C367
ENCODING 247
SWIDTH 666 0
DWIDTH 16 0
BBX 11 11 4 0
BITMAP
3800
7c00
7c00
fe00
ba00
fe00
7c60
7ce0
7fc0
3f80
1f00
ENDCHAR
STARTCHAR C370
ENCODING 248
SWIDTH 666 0
DWIDTH 16 0
BBX 13 13 1 -2
BITMAP
0030
0078
0078
0670
1980
07c0
0f20
fe80
be40
ff00
3d00
7700
2000
ENDCHAR
STARTCHAR C371
ENCODING 249
SWIDTH 666 0
DWIDTH 16 0
BBX 14 13 1 -1
BITMAP
0300
0300
37b0
1fe0
0fc0
3ff0
fffc
3ff0
0fc0
1fe0
37b0
0300
0300
ENDCHAR
STARTCHAR C372
ENCODING 250
SWIDTH 666 0
DWIDTH 16 0
BBX 13 13 1 -2
BITMAP
0100
1b80
1fc0
3d70
7f38
5ef8
05f0
6bb0
ffb0
cfc0
1fe0
3860
7cf0
ENDCHAR
STARTCHAR C373
ENCODING 251
SWIDTH 666 0
DWIDTH 16 0
BBX 11 13 2 -1
BITMAP
1f00
3b80
71c0
60c0
fbe0
fbe0
fbe0
fbe0
f1e0
60c0
64c0
3f80
1f00
ENDCHAR
STARTCHAR C374
ENCODING 252
SWIDTH 666 0
DWIDTH 16 0
BBX 16 13 0 -2
BITMAP
03c0
0ff0
1ff8
3ffc
334c
3554
334c
355c
355c
3ffc
3bdc
3adc
f2cf
ENDCHAR
STARTCHAR C375
ENCODING 253
SWIDTH 666 0
DWIDTH 16 0
BBX 11 13 2 -1
BITMAP
1f00
3380
7fc0
73c0
ffe0
f3e0
ffe0
f3e0
e1e0
69c0
73c0
3f80
1f00
ENDCHAR
STARTCHAR C376
ENCODING 254
SWIDTH 666 0
DWIDTH 16 0
BBX 16 16 0 -3
BITMAP
00f8
03c0
0700
0600
0600
030c
01bf
00e1
1fb0
7e18
e008
c008
c018
e030
7fe0
1f00
ENDCHAR
STARTCHAR C377
ENCODING 255
SWIDTH 666 0
DWIDTH 16 0
BBX 16 16 0 -3
BITMAP
a421
5ec6
ed18
4d60
5180
ea00
7c00
2800
4800
7000
9000
2000
2000
4000
4000
8000
ENDCHAR
ENDFONT
